<svg xmlns="http://www.w3.org/2000/svg" viewBox="0 0 400 400" width="400" height="400">
  <rect width="400" height="400" fill="#0a0a0f"></rect>
  <rect x="20" y="20" width="360" height="360" fill="none" stroke="#f5f3ee" stroke-width="2"></rect>
  
  <g stroke="#f5f3ee" stroke-width="1" fill="none">
    <line x1="20" y1="380" x2="200" y2="200"></line>
    <line x1="60" y1="380" x2="200" y2="200"></line>
    <line x1="100" y1="380" x2="200" y2="200"></line>
    <line x1="140" y1="380" x2="200" y2="200"></line>
    <line x1="180" y1="380" x2="200" y2="200"></line>
    <line x1="220" y1="380" x2="200" y2="200"></line>
    <line x1="260" y1="380" x2="200" y2="200"></line>
    <line x1="300" y1="380" x2="200" y2="200"></line>
    <line x1="340" y1="380" x2="200" y2="200"></line>
    <line x1="380" y1="380" x2="200" y2="200"></line>
  </g>
  
  <line x1="20" y1="200" x2="380" y2="200" stroke="#f5f3ee" stroke-width="2"></line>
  
  <rect x="180" y="140" width="40" height="40" fill="#e8b84a"></rect>
  
  <circle cx="80" cy="80" r="1.5" fill="#f5f3ee"></circle>
  <circle cx="140" cy="60" r="1.5" fill="#f5f3ee"></circle>
  <circle cx="240" cy="100" r="1.5" fill="#f5f3ee"></circle>
  <circle cx="320" cy="70" r="1.5" fill="#f5f3ee"></circle>
  <circle cx="300" cy="130" r="1.5" fill="#f5f3ee"></circle>
  <circle cx="100" cy="150" r="1.5" fill="#f5f3ee"></circle>
</svg>