<svg xmlns="http://www.w3.org/2000/svg" viewBox="0 0 400 400" width="400" height="400">
  <rect width="400" height="400" fill="#0a0a0f"></rect>
  
  <rect x="20" y="20" width="360" height="360" fill="none" stroke="#f5f3ee" stroke-width="2"></rect>
  
  <g fill="#2a2a35">
    <circle cx="80" cy="80" r="2"></circle><circle cx="120" cy="80" r="2"></circle><circle cx="160" cy="80" r="2"></circle><circle cx="200" cy="80" r="2"></circle><circle cx="240" cy="80" r="2"></circle><circle cx="280" cy="80" r="2"></circle><circle cx="320" cy="80" r="2"></circle>
    <circle cx="80" cy="120" r="2"></circle><circle cx="120" cy="120" r="2"></circle><circle cx="160" cy="120" r="2"></circle><circle cx="200" cy="120" r="2"></circle><circle cx="240" cy="120" r="2"></circle><circle cx="280" cy="120" r="2"></circle><circle cx="320" cy="120" r="2"></circle>
    <circle cx="80" cy="160" r="2"></circle><circle cx="120" cy="160" r="2"></circle><circle cx="160" cy="160" r="2"></circle><circle cx="200" cy="160" r="2"></circle><circle cx="240" cy="160" r="2"></circle><circle cx="280" cy="160" r="2"></circle><circle cx="320" cy="160" r="2"></circle>
    <circle cx="80" cy="200" r="2"></circle><circle cx="120" cy="200" r="2"></circle><circle cx="160" cy="200" r="2"></circle><circle cx="200" cy="200" r="2"></circle><circle cx="240" cy="200" r="2"></circle><circle cx="280" cy="200" r="2"></circle><circle cx="320" cy="200" r="2"></circle>
    <circle cx="80" cy="240" r="2"></circle><circle cx="120" cy="240" r="2"></circle><circle cx="160" cy="240" r="2"></circle><circle cx="200" cy="240" r="2"></circle><circle cx="240" cy="240" r="2"></circle><circle cx="280" cy="240" r="2"></circle><circle cx="320" cy="240" r="2"></circle>
    <circle cx="80" cy="280" r="2"></circle><circle cx="120" cy="280" r="2"></circle><circle cx="160" cy="280" r="2"></circle><circle cx="200" cy="280" r="2"></circle><circle cx="240" cy="280" r="2"></circle><circle cx="280" cy="280" r="2"></circle><circle cx="320" cy="280" r="2"></circle>
    <circle cx="80" cy="320" r="2"></circle><circle cx="120" cy="320" r="2"></circle><circle cx="160" cy="320" r="2"></circle><circle cx="200" cy="320" r="2"></circle><circle cx="240" cy="320" r="2"></circle><circle cx="280" cy="320" r="2"></circle><circle cx="320" cy="320" r="2"></circle>
  </g>
  
  <circle cx="200" cy="200" r="110" fill="none" stroke="#f5f3ee" stroke-width="1"></circle>
  
  <circle cx="200" cy="200" r="36" fill="#0a0a0f" stroke="#f5f3ee" stroke-width="2"></circle>
  <line x1="164" y1="200" x2="236" y2="200" stroke="#f5f3ee" stroke-width="1"></line>
  
  <rect x="303" y="193" width="14" height="14" fill="#e8b84a"></rect>
  
  <line x1="20" y1="360" x2="380" y2="360" stroke="#f5f3ee" stroke-width="1"></line>
  
  <line x1="200" y1="60" x2="200" y2="90" stroke="#f5f3ee" stroke-width="1"></line>
  <line x1="60" y1="200" x2="90" y2="200" stroke="#f5f3ee" stroke-width="1"></line>
</svg>