<svg xmlns="http://www.w3.org/2000/svg" viewBox="0 0 400 400" width="400" height="400">
  <rect width="400" height="400" fill="#0a0a0f"></rect>
  <rect x="20" y="20" width="360" height="360" fill="none" stroke="#f5f3ee" stroke-width="2"></rect>
  
  <g fill="#f5f3ee">
    <rect x="40" y="180" width="8" height="40"></rect>
    <rect x="60" y="160" width="8" height="80"></rect>
    <rect x="80" y="140" width="8" height="120"></rect>
    <rect x="100" y="100" width="8" height="200"></rect>
    <rect x="120" y="140" width="8" height="120"></rect>
    <rect x="140" y="170" width="8" height="60"></rect>
    <rect x="160" y="180" width="8" height="40"></rect>
    <rect x="180" y="150" width="8" height="100"></rect>
    <rect x="200" y="120" width="8" height="160"></rect>
    <rect x="220" y="90" width="8" height="220"></rect>
    <rect x="240" y="120" width="8" height="160"></rect>
    <rect x="260" y="160" width="8" height="80"></rect>
    <rect x="280" y="180" width="8" height="40"></rect>
    <rect x="300" y="170" width="8" height="60"></rect>
    <rect x="320" y="185" width="8" height="30"></rect>
    <rect x="340" y="190" width="8" height="20"></rect>
  </g>
  
  <rect x="220" y="90" width="8" height="220" fill="#e8b84a"></rect>
  
  <line x1="20" y1="340" x2="380" y2="340" stroke="#f5f3ee" stroke-width="1"></line>
</svg>